<svg width="96" height="96" xmlns="http://www.w3.org/2000/svg" xmlns:xlink="http://www.w3.org/1999/xlink" overflow="hidden"><defs><clipPath id="clip0"><rect x="580" y="134" width="96" height="96"/></clipPath></defs><g clip-path="url(#clip0)" transform="translate(-580 -134)"><path d="M612 176C612 167.2 619.2 160 628 160 636.8 160 644 167.2 644 176 644 184.8 636.8 192 628 192 619.2 192 612 184.8 612 176ZM628 152C629.1 152 630 152.9 630 154 630 155.1 629.1 156 628 156 626.9 156 626 155.1 626 154 626 152.9 626.9 152 628 152ZM648.5 209.6 636 208 636 202.8C647.6 199.4 656 188.7 656 176 656 160.5 643.5 148 628 148 612.5 148 600 160.5 600 176 600 188.7 608.4 199.4 620 202.8L620 208 607.5 209.6C605.5 209.9 604 211.6 604 213.6L604 216 652 216 652 213.5C652 211.5 650.5 209.8 648.5 209.6Z" fill="#595959"/><path d="M628 182C624.7 182 622 179.3 622 176 622 172.7 624.7 170 628 170 631.3 170 634 172.7 634 176 634 179.3 631.3 182 628 182ZM628 164C621.4 164 616 169.4 616 176 616 182.6 621.4 188 628 188 634.6 188 640 182.6 640 176 640 169.4 634.6 164 628 164Z" fill="#595959"/></g></svg>