<svg width="96" height="96" xmlns="http://www.w3.org/2000/svg" xmlns:xlink="http://www.w3.org/1999/xlink" overflow="hidden"><defs><clipPath id="clip0"><rect x="421" y="157" width="96" height="96"/></clipPath></defs><g clip-path="url(#clip0)" transform="translate(-421 -157)"><path d="M468.985 167C448.009 166.999 431.005 184.003 431.004 204.979 431.003 225.955 448.007 242.959 468.983 242.96 489.959 242.961 506.963 225.957 506.964 204.981 506.964 204.98 506.964 204.978 506.964 204.977 506.972 184.011 489.981 167.008 469.015 167 469.005 167 468.995 167 468.985 167ZM485.955 217.169 481.174 221.95 468.985 209.759 456.8 221.948 452.019 217.167 464.2 204.977 452.014 192.788 456.8 188.007 468.985 200.2 481.174 188.007 485.955 192.788 473.766 204.977Z" fill="#E60000"/></g></svg>