<?xml version="1.0" encoding="UTF-8" standalone="no"?>
<!-- Created with Inkscape (http://www.inkscape.org/) -->

<svg
   width="72mm"
   height="72mm"
   version="1.1"
   viewBox="0 0 72 72"
   id="svg8"
   sodipodi:docname="dessin_meuble_gris.svg"
   inkscape:version="1.1.2 (b8e25be833, 2022-02-05)"
   xmlns:inkscape="http://www.inkscape.org/namespaces/inkscape"
   xmlns:sodipodi="http://sodipodi.sourceforge.net/DTD/sodipodi-0.dtd"
   xmlns="http://www.w3.org/2000/svg"
   xmlns:svg="http://www.w3.org/2000/svg">
  <defs
     id="defs12" />
  <sodipodi:namedview
     id="namedview10"
     pagecolor="#ffffff"
     bordercolor="#666666"
     borderopacity="1.0"
     inkscape:pageshadow="2"
     inkscape:pageopacity="0.0"
     inkscape:pagecheckerboard="0"
     inkscape:document-units="mm"
     showgrid="false"
     inkscape:zoom="2.873669"
     inkscape:cx="136.06299"
     inkscape:cy="136.06299"
     inkscape:window-width="1920"
     inkscape:window-height="986"
     inkscape:window-x="-11"
     inkscape:window-y="-11"
     inkscape:window-maximized="1"
     inkscape:current-layer="g6" />
  <g
     id="g6">
    <rect
       x="1.587"
       y="1.4652"
       width="69.187"
       height="69.187"
       rx="12.231"
       ry="15.877"
       fill="#fff"
       fill-rule="evenodd"
       stroke="#000"
       stroke-width=".81265"
       id="rect2"
       style="stroke:#000000;stroke-opacity:0.5" />
    <path
       d="m25.499 55.969 0.0375-9.205 33.701-0.0734v18.484h-33.776zm-13.769 3.9352c-1.4141-2.1043-2.571-3.8912-2.571-3.9708 0-0.0908 0.86837-0.14484 2.3283-0.14484h2.3283l0.03732-10.561c0.03487-9.8778 0.05386-10.571 0.2921-10.72 0.18581-0.11624 0.3237-0.11624 0.50951 0 0.23827 0.14908 0.25718 0.84268 0.2921 10.72l0.03732 10.561h2.3283c1.4599 0 2.3283 0.054 2.3283 0.14484 0 0.19052-5.1127 7.7968-5.2407 7.7968-0.05424 0-1.2556-1.7217-2.6697-3.826zm6.8965-12.914c-0.10032-0.18594-0.15069-4.192-0.15069-11.985v-11.705h-2.3292c-1.4605 0-2.3292-0.054-2.3292-0.14484 0-0.2363 5.1359-7.8074 5.2669-7.7641 0.06608 0.0218 1.2991 1.794 2.7401 3.9382l2.62 3.8985-4.8039 0.0792v11.808c0 8.9914-0.04164 11.849-0.17469 11.981-0.26231 0.26018-0.66938 0.20876-0.83922-0.10602zm6.8369-8.9619v-8.5192h33.774v17.038h-33.774zm21.108-0.93855v-0.79417h-8.2978v1.5883h8.2978zm-21.074-13.609 0.03807-5.7396 33.701-0.0734v11.553h-33.777zm2.6879-7.1752c-3.2133-1.1369-4.0257-5.1964-1.4841-7.4154 1.2572-1.0976 0.37997-1.0399 15.796-1.0399h13.78l0.89387 0.44305c1.0638 0.52728 1.8144 1.3451 2.1629 2.3568 0.79552 2.3091-0.32675 4.7414-2.5794 5.5904-0.69322 0.26127-1.3266 0.27303-14.371 0.26697-11.097-5e-3 -13.749-0.0429-14.199-0.20192zm28.36-1.185c1.1933-0.63395 1.7929-1.4862 1.9226-2.7326 0.16111-1.5483-0.99153-3.0331-2.6267-3.3837-0.53355-0.11438-4.5996-0.14832-13.928-0.11626l-13.175 0.0453-0.59608 0.31637c-1.2712 0.67471-1.8826 1.7834-1.7776 3.2235 0.10672 1.4634 1.1919 2.6269 2.6872 2.8812 0.38803 0.066 6.6013 0.11024 13.807 0.0983l13.102-0.0216zm-27.059-0.39999c-2.6918-0.98305-2.3133-4.8412 0.51257-5.2254 2.1994-0.299 3.7241 1.9039 2.7289 3.9429-0.53899 1.1044-2.0703 1.7102-3.2415 1.2825zm24.457 0c-2.6918-0.98305-2.3133-4.8412 0.51257-5.2254 2.1994-0.299 3.7241 1.9039 2.7289 3.9429-0.53899 1.1044-2.0703 1.7102-3.2415 1.2825z"
       fill="#000001"
       stroke-width=".14498"
       id="path4"
       style="fill:#000000;fill-opacity:0.5" />
  </g>
</svg>
