<?xml version="1.0" encoding="UTF-8"?>
<svg xmlns="http://www.w3.org/2000/svg" xmlns:xlink="http://www.w3.org/1999/xlink" width="20px" height="20px" viewBox="0 0 20 20" version="1.1">
<g id="surface1">
<path style=" stroke:none;fill-rule:nonzero;fill:rgb(0%,0%,0%);fill-opacity:1;" d="M 10 12.5 C 8.625 12.5 7.5 11.375 7.5 10 C 7.5 8.625 8.625 7.5 10 7.5 C 11.375 7.5 12.5 8.625 12.5 10 C 12.5 11.375 11.375 12.5 10 12.5 Z M 15.625 8.4375 C 15.5 7.980469 15.3125 7.542969 15.082031 7.144531 L 15.605469 5.582031 L 14.417969 4.394531 L 12.855469 4.917969 C 12.4375 4.6875 12 4.5 11.542969 4.375 L 10.832031 2.917969 L 9.167969 2.917969 L 8.4375 4.375 C 7.980469 4.5 7.542969 4.6875 7.144531 4.917969 L 5.582031 4.394531 L 4.394531 5.582031 L 4.917969 7.144531 C 4.6875 7.5625 4.5 8 4.375 8.457031 L 2.917969 9.167969 L 2.917969 10.832031 L 4.375 11.5625 C 4.5 12.019531 4.6875 12.457031 4.917969 12.855469 L 4.394531 14.417969 L 5.582031 15.605469 L 7.144531 15.082031 C 7.5625 15.3125 8 15.5 8.457031 15.625 L 9.1875 17.082031 L 10.855469 17.082031 L 11.582031 15.625 C 12.042969 15.5 12.480469 15.3125 12.875 15.082031 L 14.4375 15.605469 L 15.625 14.417969 L 15.105469 12.855469 C 15.332031 12.4375 15.519531 12 15.644531 11.542969 L 17.105469 10.8125 L 17.105469 9.144531 Z M 15.625 8.4375 "/>
</g>
</svg>
